<svg width="32" height="32" viewBox="0 0 32 32" fill="none" xmlns="http://www.w3.org/2000/svg">
<path opacity="0.4" d="M26 4H24C22.8954 4 22 4.89543 22 6V26C22 27.1046 22.8954 28 24 28H26C27.1046 28 28 27.1046 28 26V6C28 4.89543 27.1046 4 26 4Z" fill="#EEEFFC"/>
<path d="M6 16H4C2.89543 16 2 16.8954 2 18V26C2 27.1046 2.89543 28 4 28H6C7.10457 28 8 27.1046 8 26V18C8 16.8954 7.10457 16 6 16Z" fill="#EEEFFC"/>
<path opacity="0.4" d="M16 10H14C12.8954 10 12 10.8954 12 12V26C12 27.1046 12.8954 28 14 28H16C17.1046 28 18 27.1046 18 26V12C18 10.8954 17.1046 10 16 10Z" fill="#EEEFFC"/>
</svg>
